<?xml version="1.0" encoding="UTF-8" standalone="no"?>
<svg
   version="1.1"
   x="0px"
   y="0px"
   viewBox="0 0 19768.36 15625"
   xml:space="preserve"
   id="svg192"
   sodipodi:docname="noun-gun-1036527.svg"
   inkscape:export-filename="logo.svg"
   inkscape:export-xdpi="96"
   inkscape:export-ydpi="96"
   width="19768.361"
   height="15625"
   xmlns:inkscape="http://www.inkscape.org/namespaces/inkscape"
   xmlns:sodipodi="http://sodipodi.sourceforge.net/DTD/sodipodi-0.dtd"
   xmlns="http://www.w3.org/2000/svg"
   xmlns:svg="http://www.w3.org/2000/svg"><defs
     id="defs196" /><sodipodi:namedview
     id="namedview194"
     pagecolor="#ffffff"
     bordercolor="#999999"
     borderopacity="1"
     inkscape:showpageshadow="0"
     inkscape:pageopacity="0"
     inkscape:pagecheckerboard="0"
     inkscape:deskcolor="#d1d1d1"
     showgrid="false" /><g
     id="g186"
     transform="matrix(0.45903409,-0.29517099,0.30170602,0.44909129,26.007539,65.370812)"><path
       d="m 61.9,40.2 c 0,1.9 0.7,3.6 1.7,4.9 1.2,1.4 2.9,2.1 5.2,2.1 h 1.7 v -1 c -1.2,-1.2 -2.1,-3.6 -2.1,-6.1 0,-2.6 0.9,-4.9 2.1,-6.2 v -1 h -2.3 c -4,-0.1 -6.3,3.7 -6.3,7.3 z"
       id="path180" /><path
       d="m 123.8,18.2 c -1.9,1.2 -4.2,2.3 -6.9,2.3 h -100 c -0.5,2.9 -1.7,4.5 -4.2,5.4 -3.8,1.4 -6.9,2.9 -8.7,5.4 -0.5,0.9 -0.2,2.4 0.9,2.4 8.3,0 12.5,4.3 12.5,10.2 0,1.9 -0.3,4.2 -1.4,6.4 L 9.2,63.5 C 4.5,72.5 0,83.7 0,90 c 0,4.2 1.7,5.5 3.3,5.7 l 31.4,4.2 c 3.5,0.5 5,-0.5 6.1,-3.5 l 9.9,-36.8 c 1.6,-6.1 5,-8.5 12.3,-8.5 h 12.5 c 8.1,0 11.8,-4.2 11.8,-11.8 0,-7.8 4,-10.6 9.2,-10.6 h 20.8 c 1.6,0 2.3,-0.5 2.3,-2.3 h 19.6 c 0.9,0 1.6,-0.5 1.6,-1.7 v -9.2 h -8.5 c -4,0.1 -6.4,1.3 -8.5,2.7 z M 82.5,46.1 c -1.6,1.7 -3.8,2.8 -6.4,2.8 h -7.3 c -2.8,0 -4.9,-1 -6.4,-2.8 -1.4,-1.6 -2.1,-3.6 -2.1,-5.9 0,-4.3 2.8,-9 8,-9 h 8.1 c 5.2,0 8,4.7 8,9 0,2.3 -0.7,4.4 -1.9,5.9 z"
       id="path182" /><path
       d="m 139.1,2.8 h -2.8 c 0,-0.9 -0.3,-0.9 -0.7,-1 L 133.9,1 H 132 l -2.3,0.7 c -0.7,0.2 -0.9,0.7 -0.9,1 H 88.1 L 87.8,3.4 H 68.1 L 67.6,2.7 H 35.2 c 0,-1.6 -1.9,-1.2 -1.9,-2.3 0,-0.3 -0.3,-0.5 -0.7,-0.5 h -2.1 c -0.3,0 -0.7,0.2 -0.7,0.5 0,1 -1.9,0.7 -1.9,2.3 H 24.4 C 22.8,2.7 21.8,3 20.8,4.6 L 19.2,7.7 C 18.5,8 18.2,8 17.5,7.2 16.8,6.3 15.8,6 14.6,6 c -1.9,0 -4,1.2 -4,3.6 0,1.7 0.9,3.1 2.8,4.2 1.2,0.5 2.3,1.4 3.1,2.4 0.5,0.7 0.7,1.4 0.5,2.4 H 28.4 V 8 c 0,-0.5 0.3,-0.9 0.7,-0.9 0.5,0 0.9,0.4 0.9,0.9 v 10.8 h 2.6 V 8 c 0,-0.5 0.3,-0.9 0.7,-0.9 0.5,0 0.9,0.3 0.9,0.9 v 10.8 h 2.4 V 8 c 0,-0.5 0.5,-0.9 0.9,-0.9 0.5,0 0.9,0.3 0.9,0.9 v 10.8 h 2.4 V 8 c 0,-0.5 0.3,-0.9 0.9,-0.9 0.5,0 0.9,0.3 0.9,0.9 V 18.8 H 45 V 8 c 0,-0.5 0.3,-0.9 0.9,-0.9 0.3,0 0.9,0.3 0.9,0.9 v 10.8 h 2.4 V 8 c 0,-0.5 0.3,-0.9 0.9,-0.9 0.3,0 0.7,0.3 0.7,0.9 v 10.8 h 2.6 V 8 c 0,-0.5 0.3,-0.9 0.9,-0.9 0.3,0 0.7,0.3 0.7,0.9 v 10.8 h 62.1 c 2.4,0 4.2,-0.9 6.1,-1.9 2.4,-1.4 5,-2.8 9.2,-2.8 h 8.5 V 4.3 C 140.6,3.1 140.1,2.8 139.1,2.8 Z M 14.4,11.4 c -1,0 -1.7,-0.7 -1.7,-1.6 0,-1 0.7,-1.7 1.7,-1.7 0.9,0 1.6,0.7 1.6,1.7 0,1 -0.7,1.6 -1.6,1.6 z m 68.8,0.2 H 72.8 c -4.3,0 -6.1,-2.9 -6.2,-5.4 0,-0.5 0.2,-0.9 0.7,-0.9 0.3,0 0.9,0.3 0.9,0.7 0.2,1 0.7,4 4.7,4 h 10.4 c 4.2,0 4.7,-2.9 4.7,-4 0,-0.3 0.5,-0.7 0.9,-0.7 0.5,0 0.9,0.3 0.9,0.9 -0.3,2.5 -2.2,5.4 -6.6,5.4 z"
       id="path184" /></g><g
     id="g383"
     transform="translate(-88.290384,-13.702782)"><path
       d="m 188.84622,33.92398 c 0.9279,-0.103123 1.81312,0.07336 2.86081,-0.119789 1.92078,-0.354121 3.73626,-2.659067 3.73626,-2.659067 0,0 -0.88563,2.744963 -2.10127,4.184841 -1.18701,1.413148 -1.49357,1.19791 -2.94387,2.59523 -1.54533,1.507803 -1.92315,2.732432 -1.92315,2.732432 0,0 0.81465,-1.065589 1.75905,-1.532919 1.33523,-0.635916 2.20007,-0.04803 2.20007,-0.04803 0,0 -1.86068,1.562376 -2.80998,3.385822 -1.06634,2.041672 -1.81489,2.783977 -3.0482,3.629963 -1.12782,0.769323 -2.36998,0.751604 -3.155,-0.651961 -0.0757,-0.125494 -0.16196,-0.28481 -0.23909,-0.474409 0.15786,0.0924 0.37293,0.131503 0.6635,0.05645 1.032,-0.243897 1.64477,-1.186448 2.0559,-2.899937 0.69007,-2.780429 1.87461,-4.082278 1.87461,-4.082278 0,0 -0.75823,0.29355 -1.31153,0.831797 -0.45828,0.427763 -0.5285,0.558715 -1.08152,1.336487 -0.58165,0.804514 -0.94797,0.754036 -0.94797,0.754036 0,0 0.31369,-0.358192 0.55025,-0.905984 0.29633,-0.712565 0.26792,-1.579813 0.26792,-1.579813 0,0 -0.40015,1.092867 -1.87691,2.166093 -0.54174,0.396654 -0.94492,1.121776 -0.97903,2.025581 -0.21102,-0.980185 -0.30223,-2.050397 -0.0544,-2.9793 0.90679,-3.571291 4.23463,-5.522163 6.50356,-5.765261 z"
       id="path368"
       style="stroke-width:0.17669" /></g></svg>
